<?xml version="1.0" encoding="utf-8"?>
<!-- Generator: Adobe Illustrator 22.0.1, SVG Export Plug-In . SVG Version: 6.00 Build 0)  -->
<svg version="1.1" id="icon-eia-logo" xmlns="http://www.w3.org/2000/svg" xmlns:xlink="http://www.w3.org/1999/xlink" x="0px"
	 y="0px" width="250.1px" height="183.73px" viewBox="0 0 250.1 183.73" enable-background="new 0 0 250.1 183.73"
	 xml:space="preserve">
<g>
	<path fill="#231F20" d="M23.27,106.91c4.1-4.58,10.03-7.09,16.17-6.83c5.97-0.13,11.71,2.28,15.81,6.63
		c4.4,4.84,6.67,11.23,6.33,17.76v1.46h-45.1C16.52,119,18.92,112.3,23.27,106.91 M74.8,163.67c-3.38,3.77-7.22,7.11-11.43,9.94
		c-4.24,2.34-9.04,3.48-13.88,3.31c-6-0.1-11.81-2.12-16.57-5.77c-5.5-4.05-9.72-9.59-12.16-15.97c-2.94-7.66-4.36-15.82-4.18-24.03
		v-1.26h60.94v-1.66c0.02-9-3.9-17.55-10.74-23.4c-6.77-6.44-15.78-10-25.12-9.94c-11.27-0.17-22.05,4.59-29.53,13.02
		c-8.06,8.71-12.39,20.22-12.06,32.08c-0.37,11.72,4.21,23.05,12.63,31.22c8.59,8.24,20.15,12.67,32.04,12.26
		c6.51,0.18,12.96-1.24,18.79-4.14c6.04-3.48,11.28-8.2,15.38-13.85l0,0L74.8,163.67z M188.16,163.97c-1.66,3.2-4.23,5.83-7.39,7.56
		c-2.98,1.9-6.41,2.95-9.94,3.05c-3.53-0.03-6.84-1.71-8.95-4.54c-2.49-3.04-3.82-6.87-3.74-10.8c-0.22-4.09,1.02-8.12,3.51-11.37
		c2.34-2.81,7.7-5.63,16.07-8.48c4.53-1.55,7.99-2.82,10.37-3.81v28.37L188.16,163.97z M215.87,167.29
		c-1.06,3.31-4.44,7.29-6.96,7.19c-1.73,0.07-3.27-1.06-3.74-2.72c-0.83-3.37-1.16-6.84-0.99-10.31V125.7
		c0.06-16.89-13.58-30.64-30.47-30.7c-7.17-0.03-14.11,2.46-19.63,7.04c-5.5,4.61-9.31,10.92-10.84,17.93l4.11,1.72
		c1.38-5.13,4.32-9.7,8.42-13.09c3.86-3.17,8.72-4.88,13.72-4.84c5.13-0.22,10.1,1.83,13.59,5.6c3.51,4.07,5.33,9.34,5.07,14.71
		v6.23c-5.01,2.39-10.27,4.25-15.67,5.53c-12.48,3.56-20.69,7.24-24.62,11.04c-3.99,3.73-6.19,8.99-6.03,14.45
		c-0.06,6.02,2.5,11.77,7.03,15.74c4.53,4.33,10.57,6.71,16.83,6.63c3.91,0.04,7.78-0.86,11.27-2.62c4.18-2.49,7.92-5.64,11.07-9.34
		c2.61,7.93,7.33,11.89,14.18,11.86c4.27,0.17,8.41-1.51,11.37-4.61c2.6-2.9,4.24-6.53,4.67-10.41L215.87,167.29z M121.26,174.71
		c-2.02-1.56-3.02-4.61-3.02-9.25V94.58h-5.17l0,0c-4.94,2.25-26.51,2.85-26.51,2.85v3.91c6.99,0,11.4,0.83,13.26,2.42
		c1.86,1.59,2.65,4.97,2.65,9.94v51.76c0,4.71-0.96,7.81-2.88,9.31c-1.92,1.49-6.23,2.25-12.92,2.25v3.91h45.53v-3.91
		C128.4,177.38,124.58,176.57,121.26,174.71 M117.61,75.06c0,4.96-4.02,8.98-8.98,8.98c-4.96,0-8.98-4.02-8.98-8.98
		c0-4.96,4.02-8.98,8.98-8.98l0,0C113.59,66.08,117.61,70.1,117.61,75.06"/>
	<path fill="#5D9732" d="M27.54,81.16c0.36-0.4,0.86-0.89,1.52-1.56C52.76,56.49,79.64,36.9,108.9,21.41
		c14.89-7.93,30.78-13.8,47.26-17.43c33.47-6.79,54.21,1.26,60.54,6.63c0.86,0.66,1.58,1.49,2.09,2.45
		c-20.26-2.02-40.72-0.9-60.64,3.31C119.93,24.23,81.33,42.02,43.38,69.2c-4.9,3.51-9.78,7.19-14.45,10.9
		c-0.46,0.37-0.93,0.71-1.42,1.03"/>
	<path fill="#FFC702" d="M19.32,83.21c0.36-0.63,0.93-1.52,1.82-2.85c8.22-11.86,20.94-29.13,30.92-40.89
		c23.69-28,46.13-36.05,57.4-38.37c3.77-0.83,7.64-1.18,11.5-1.03c-0.29,0.43-0.62,0.83-0.99,1.19C93,15.08,68.23,32.81,46.46,53.89
		c-7.09,7.03-13.72,14.48-19.05,20.48c-2.09,2.35-4.01,4.54-5.73,6.43C20.58,81.95,19.85,82.72,19.32,83.21"/>
	<path fill="#189BD7" d="M232.93,146.47c0.13-1.56,0.44-3.09,0.93-4.57c7.09-21.47,6.63-41.39-1.69-57.63
		c-17.03-33.9-58.56-47.52-110.88-36.75c-26.32,5.81-51.59,15.6-74.96,29.03c-1.46,0.8-2.88,1.62-4.27,2.49
		c-1.36,0.8-2.32,1.33-2.98,1.66c0.6-0.5,1.46-1.16,2.68-2.02c7.26-5.11,14.77-9.86,22.5-14.22c21.34-12.02,44.36-20.77,68.3-25.95
		c52.76-10.87,95.31,1.69,111.01,32.81c5.39,10.97,7.48,23.26,6.03,35.39C248.32,121.38,242.49,135.28,232.93,146.47"/>
</g>
</svg>
