<svg id="Layer_1" data-name="Layer 1" xmlns="http://www.w3.org/2000/svg" viewBox="0 0 1200 1200"><defs><style>.cls-1{fill:#fff;}.cls-2{fill:#4cb6ac;}.cls-3{fill:#546f7a;}</style></defs><circle class="cls-1" cx="600" cy="600" r="600"/><path class="cls-2" d="M345.58,354.48c-28.8,1.85-49.75,11.46-52.54,26.42L217.6,785.07c-2.79,15-23.74,24.57-52.54,26.42a191.73,191.73,0,0,1-47-3.17,192.06,192.06,0,0,1-45-14c28.8-1.85,49.75-11.47,52.54-26.42L201,363.72c4.17-22.32,48.75-32.72,99.56-23.24A192.06,192.06,0,0,1,345.58,354.48Z" transform="translate(0.37)"/><path class="cls-2" d="M519.17,354.48c-28.81,1.85-49.75,11.46-52.54,26.42L391.19,785.07c-2.8,15-23.74,24.57-52.55,26.42a201.6,201.6,0,0,1-92-17.17c28.81-1.85,49.76-11.47,52.55-26.42l75.44-404.18c4.16-22.32,48.74-32.72,99.56-23.24A192.21,192.21,0,0,1,519.17,354.48Z" transform="translate(0.37)"/><path class="cls-2" d="M688.61,354.47c-28.81,1.86-49.75,11.47-52.55,26.43L560.63,785.08c-2.79,14.95-23.74,24.56-52.54,26.41a201.53,201.53,0,0,1-92-17.17c28.81-1.85,49.75-11.47,52.53-26.42l75.45-404.18c4.16-22.32,48.75-32.72,99.57-23.23A192.13,192.13,0,0,1,688.61,354.47Z" transform="translate(0.37)"/><path class="cls-3" d="M717.64,270.06c-38.52,41.33-26,122.26,9.42,214.3,25.6,66.51,63.1,138.82,101.92,206.16,3.57,6.22,7.17,12.37,10.74,18.48,21.88,37.2,43.84,72.57,64,104.13,50.89,79.68,90.44,135.37,88.46,136.56s-47.57-55-104.73-136.56C832.39,734.52,766.6,632.38,718.56,535.34c-11.54-23.29-22-46.28-31.14-68.58-37-90.89-50.5-170.3-13.73-211.44a77.29,77.29,0,0,1,17.71-14.58c92.7-56.28,322,42.36,321.51,44.46-.32,1.57-124.38-51-217.36-45.34h0c-23.09,1.41-44.26,6.38-61.12,16.68h0A78.55,78.55,0,0,0,717.64,270.06Z" transform="translate(0.37)"/><path class="cls-2" d="M710,586.85,672.16,813.13h178C804.49,747.24,752.61,666.63,710,586.85Z" transform="translate(0.37)"/><path class="cls-2" d="M1011.46,573.15q45.86-10.33,73.1-40.53t27.23-73.26q0-39.28-22.92-68.6T1032.15,352q-33.8-9.49-86.9-9.49H754c3.78-17.19,10.85-32.05,22-43.82,26.45-28,71.23-34,118.07-30.15h0q12.72,1,25.53,3h0c77,11.47,151.38,43.43,151.63,42.3,0-1.55-113.48-52-213.37-60.91h-.07a279.27,279.27,0,0,0-51-.42c-30.62,2.86-57.16,12.19-74.81,31.43-34.55,37.68-27.85,105.69-1.79,181.67v0C753.67,534,792.84,609,831.72,674.12l5.42-32.41,3.5-21h59q27,0,40.57,12.23t13.64,32.23q0,16.24-12.42,30T896.25,709H853.08c26.93,43,52.27,79.59,70.4,104.13,15.74,21.33,26,33.54,27.23,32.9s-5.9-12.68-17.92-32.95q83-.93,119.17-41.33Q1089,730.4,1089,675.55,1089,600.39,1011.46,573.15ZM911,522.12H857.11l13.41-80.33h53.93q51.13,0,51.14,37.57Q975.59,522.11,911,522.12Z" transform="translate(0.37)"/></svg>